<?xml version="1.0" encoding="UTF-8" standalone="no"?>
<!DOCTYPE svg PUBLIC "-//W3C//DTD SVG 1.1//EN"
 "http://www.w3.org/Graphics/SVG/1.1/DTD/svg11.dtd">
<!-- Generated by graphviz version 2.36.0 (20140111.2315)
 -->
<!-- Title: G Pages: 1 -->
<svg width="688pt" height="580pt"
 viewBox="0.00 0.00 688.00 580.00" xmlns="http://www.w3.org/2000/svg" xmlns:xlink="http://www.w3.org/1999/xlink">
<g id="graph0" class="graph" transform="scale(1 1) rotate(0) translate(4 576)">
<title>G</title>
<polygon fill="white" stroke="none" points="-4,4 -4,-576 684,-576 684,4 -4,4"/>
<g id="clust1" class="cluster"><title>cluster_root</title>
<g id="a_clust1"><a xlink:title="eventq_index&#61;0&#10;full_system&#61;false&#10;sim_quantum&#61;0&#10;time_sync_enable&#61;false&#10;time_sync_period&#61;100000000000&#10;time_sync_spin_threshold&#61;100000000">
<path fill="#bab6ae" stroke="#000000" d="M20,-8C20,-8 660,-8 660,-8 666,-8 672,-14 672,-20 672,-20 672,-552 672,-552 672,-558 666,-564 660,-564 660,-564 20,-564 20,-564 14,-564 8,-558 8,-552 8,-552 8,-20 8,-20 8,-14 14,-8 20,-8"/>
<text text-anchor="middle" x="340" y="-548.8" font-family="Arial" font-size="14.00" fill="#000000">root </text>
<text text-anchor="middle" x="340" y="-533.8" font-family="Arial" font-size="14.00" fill="#000000">: Root</text>
</a>
</g>
</g>
<g id="clust2" class="cluster"><title>cluster_system</title>
<g id="a_clust2"><a xlink:title="boot_osflags&#61;a&#10;cache_line_size&#61;64&#10;clk_domain&#61;system.clk_domain&#10;eventq_index&#61;0&#10;exit_on_work_items&#61;false&#10;init_param&#61;0&#10;kernel&#61;&#10;kernel_addr_check&#61;true&#10;load_addr_mask&#61;1099511627775&#10;load_offset&#61;0&#10;mem_mode&#61;atomic&#10;mem_ranges&#61;0:536870911&#10;memories&#61;system.mem_ctrls&#10;mmap_using_noreserve&#61;false&#10;multi_thread&#61;false&#10;num_work_ids&#61;16&#10;readfile&#61;&#10;symbolfile&#61;&#10;work_begin_ckpt_count&#61;0&#10;work_begin_cpu_id_exit&#61;&#45;1&#10;work_begin_exit_count&#61;0&#10;work_cpus_ckpt_count&#61;0&#10;work_end_ckpt_count&#61;0&#10;work_end_exit_count&#61;0&#10;work_item_id&#61;&#45;1">
<path fill="#e4e7eb" stroke="#000000" d="M28,-16C28,-16 652,-16 652,-16 658,-16 664,-22 664,-28 664,-28 664,-506 664,-506 664,-512 658,-518 652,-518 652,-518 28,-518 28,-518 22,-518 16,-512 16,-506 16,-506 16,-28 16,-28 16,-22 22,-16 28,-16"/>
<text text-anchor="middle" x="340" y="-502.8" font-family="Arial" font-size="14.00" fill="#000000">system </text>
<text text-anchor="middle" x="340" y="-487.8" font-family="Arial" font-size="14.00" fill="#000000">: System</text>
</a>
</g>
</g>
<g id="clust3" class="cluster"><title>cluster_system_membus</title>
<g id="a_clust3"><a xlink:title="clk_domain&#61;system.clk_domain&#10;eventq_index&#61;0&#10;forward_latency&#61;4&#10;frontend_latency&#61;3&#10;point_of_coherency&#61;true&#10;response_latency&#61;2&#10;snoop_filter&#61;Null&#10;snoop_response_latency&#61;4&#10;system&#61;system&#10;use_default_range&#61;false&#10;width&#61;16">
<path fill="#6f798c" stroke="#000000" d="M275,-156C275,-156 399,-156 399,-156 405,-156 411,-162 411,-168 411,-168 411,-236 411,-236 411,-242 405,-248 399,-248 399,-248 275,-248 275,-248 269,-248 263,-242 263,-236 263,-236 263,-168 263,-168 263,-162 269,-156 275,-156"/>
<text text-anchor="middle" x="337" y="-232.8" font-family="Arial" font-size="14.00" fill="#000000">membus </text>
<text text-anchor="middle" x="337" y="-217.8" font-family="Arial" font-size="14.00" fill="#000000">: SystemXBar</text>
</a>
</g>
</g>
<g id="clust7" class="cluster"><title>cluster_system_mem_ctrls</title>
<g id="a_clust7"><a xlink:title="IDD0&#61;0.075000&#10;IDD02&#61;0.000000&#10;IDD2N&#61;0.050000&#10;IDD2N2&#61;0.000000&#10;IDD2P0&#61;0.000000&#10;IDD2P02&#61;0.000000&#10;IDD2P1&#61;0.000000&#10;IDD2P12&#61;0.000000&#10;IDD3N&#61;0.057000&#10;IDD3N2&#61;0.000000&#10;IDD3P0&#61;0.000000&#10;IDD3P02&#61;0.000000&#10;IDD3P1&#61;0.000000&#10;IDD3P12&#61;0.000000&#10;IDD4R&#61;0.187000&#10;IDD4R2&#61;0.000000&#10;IDD4W&#61;0.165000&#10;IDD4W2&#61;0.000000&#10;IDD5&#61;0.220000&#10;IDD52&#61;0.000000&#10;IDD6&#61;0.000000&#10;IDD62&#61;0.000000&#10;VDD&#61;1.500000&#10;VDD2&#61;0.000000&#10;activation_limit&#61;4&#10;addr_mapping&#61;RoRaBaCoCh&#10;bank_groups_per_rank&#61;0&#10;banks_per_rank&#61;8&#10;burst_length&#61;8&#10;channels&#61;1&#10;clk_domain&#61;system.clk_domain&#10;conf_table_reported&#61;true&#10;device_bus_width&#61;8&#10;device_rowbuffer_size&#61;1024&#10;device_size&#61;536870912&#10;devices_per_rank&#61;8&#10;dll&#61;true&#10;eventq_index&#61;0&#10;in_addr_map&#61;true&#10;max_accesses_per_row&#61;16&#10;mem_sched_policy&#61;frfcfs&#10;min_writes_per_switch&#61;16&#10;null&#61;false&#10;page_policy&#61;open_adaptive&#10;range&#61;0:536870911&#10;ranks_per_channel&#61;2&#10;read_buffer_size&#61;32&#10;static_backend_latency&#61;10000&#10;static_frontend_latency&#61;10000&#10;tBURST&#61;5000&#10;tCCD_L&#61;0&#10;tCK&#61;1250&#10;tCL&#61;13750&#10;tCS&#61;2500&#10;tRAS&#61;35000&#10;tRCD&#61;13750&#10;tREFI&#61;7800000&#10;tRFC&#61;260000&#10;tRP&#61;13750&#10;tRRD&#61;6000&#10;tRRD_L&#61;0&#10;tRTP&#61;7500&#10;tRTW&#61;2500&#10;tWR&#61;15000&#10;tWTR&#61;7500&#10;tXAW&#61;30000&#10;tXP&#61;0&#10;tXPDLL&#61;0&#10;tXS&#61;0&#10;tXSDLL&#61;0&#10;write_buffer_size&#61;64&#10;write_high_thresh_perc&#61;85&#10;write_low_thresh_perc&#61;50">
<path fill="#5e5958" stroke="#000000" d="M317,-24C317,-24 430,-24 430,-24 436,-24 442,-30 442,-36 442,-36 442,-104 442,-104 442,-110 436,-116 430,-116 430,-116 317,-116 317,-116 311,-116 305,-110 305,-104 305,-104 305,-36 305,-36 305,-30 311,-24 317,-24"/>
<text text-anchor="middle" x="373.5" y="-100.8" font-family="Arial" font-size="14.00" fill="#000000">mem_ctrls </text>
<text text-anchor="middle" x="373.5" y="-85.8" font-family="Arial" font-size="14.00" fill="#000000">: DDR3_1600_x64</text>
</a>
</g>
</g>
<g id="clust10" class="cluster"><title>cluster_system_cpu</title>
<g id="a_clust10"><a xlink:title="branchPred&#61;Null&#10;checker&#61;Null&#10;clk_domain&#61;system.cpu_clk_domain&#10;cpu_id&#61;0&#10;do_checkpoint_insts&#61;true&#10;do_quiesce&#61;true&#10;do_statistics_insts&#61;true&#10;dstage2_mmu&#61;system.cpu.dstage2_mmu&#10;dtb&#61;system.cpu.dtb&#10;eventq_index&#61;0&#10;fastmem&#61;false&#10;function_trace&#61;false&#10;function_trace_start&#61;0&#10;interrupts&#61;system.cpu.interrupts&#10;isa&#61;system.cpu.isa&#10;istage2_mmu&#61;system.cpu.istage2_mmu&#10;itb&#61;system.cpu.itb&#10;max_insts_all_threads&#61;0&#10;max_insts_any_thread&#61;0&#10;max_loads_all_threads&#61;0&#10;max_loads_any_thread&#61;0&#10;numThreads&#61;1&#10;profile&#61;0&#10;progress_interval&#61;0&#10;simpoint_start_insts&#61;&#10;simulate_data_stalls&#61;false&#10;simulate_inst_stalls&#61;false&#10;socket_id&#61;0&#10;switched_out&#61;false&#10;system&#61;system&#10;tracer&#61;system.cpu.tracer&#10;width&#61;1&#10;workload&#61;system.cpu.workload">
<path fill="#bbc6d9" stroke="#000000" d="M142,-272C142,-272 644,-272 644,-272 650,-272 656,-278 656,-284 656,-284 656,-460 656,-460 656,-466 650,-472 644,-472 644,-472 142,-472 142,-472 136,-472 130,-466 130,-460 130,-460 130,-284 130,-284 130,-278 136,-272 142,-272"/>
<text text-anchor="middle" x="393" y="-456.8" font-family="Arial" font-size="14.00" fill="#000000">cpu </text>
<text text-anchor="middle" x="393" y="-441.8" font-family="Arial" font-size="14.00" fill="#000000">: AtomicSimpleCPU</text>
</a>
</g>
</g>
<g id="clust12" class="cluster"><title>cluster_system_cpu_dtb</title>
<g id="a_clust12"><a xlink:title="eventq_index&#61;0&#10;is_stage2&#61;false&#10;size&#61;64&#10;walker&#61;system.cpu.dtb.walker">
<path fill="#bab6ae" stroke="#000000" d="M516,-280C516,-280 636,-280 636,-280 642,-280 648,-286 648,-292 648,-292 648,-414 648,-414 648,-420 642,-426 636,-426 636,-426 516,-426 516,-426 510,-426 504,-420 504,-414 504,-414 504,-292 504,-292 504,-286 510,-280 516,-280"/>
<text text-anchor="middle" x="576" y="-410.8" font-family="Arial" font-size="14.00" fill="#000000">dtb </text>
<text text-anchor="middle" x="576" y="-395.8" font-family="Arial" font-size="14.00" fill="#000000">: ArmTLB</text>
</a>
</g>
</g>
<g id="clust13" class="cluster"><title>cluster_system_cpu_dtb_walker</title>
<g id="a_clust13"><a xlink:title="clk_domain&#61;system.cpu_clk_domain&#10;eventq_index&#61;0&#10;is_stage2&#61;false&#10;num_squash_per_cycle&#61;2&#10;sys&#61;system">
<path fill="#9f9c95" stroke="#000000" d="M524,-288C524,-288 628,-288 628,-288 634,-288 640,-294 640,-300 640,-300 640,-368 640,-368 640,-374 634,-380 628,-380 628,-380 524,-380 524,-380 518,-380 512,-374 512,-368 512,-368 512,-300 512,-300 512,-294 518,-288 524,-288"/>
<text text-anchor="middle" x="576" y="-364.8" font-family="Arial" font-size="14.00" fill="#000000">walker </text>
<text text-anchor="middle" x="576" y="-349.8" font-family="Arial" font-size="14.00" fill="#000000">: ArmTableWalker</text>
</a>
</g>
</g>
<g id="clust15" class="cluster"><title>cluster_system_cpu_itb</title>
<g id="a_clust15"><a xlink:title="eventq_index&#61;0&#10;is_stage2&#61;false&#10;size&#61;64&#10;walker&#61;system.cpu.itb.walker">
<path fill="#bab6ae" stroke="#000000" d="M364,-280C364,-280 484,-280 484,-280 490,-280 496,-286 496,-292 496,-292 496,-414 496,-414 496,-420 490,-426 484,-426 484,-426 364,-426 364,-426 358,-426 352,-420 352,-414 352,-414 352,-292 352,-292 352,-286 358,-280 364,-280"/>
<text text-anchor="middle" x="424" y="-410.8" font-family="Arial" font-size="14.00" fill="#000000">itb </text>
<text text-anchor="middle" x="424" y="-395.8" font-family="Arial" font-size="14.00" fill="#000000">: ArmTLB</text>
</a>
</g>
</g>
<g id="clust16" class="cluster"><title>cluster_system_cpu_itb_walker</title>
<g id="a_clust16"><a xlink:title="clk_domain&#61;system.cpu_clk_domain&#10;eventq_index&#61;0&#10;is_stage2&#61;false&#10;num_squash_per_cycle&#61;2&#10;sys&#61;system">
<path fill="#9f9c95" stroke="#000000" d="M372,-288C372,-288 476,-288 476,-288 482,-288 488,-294 488,-300 488,-300 488,-368 488,-368 488,-374 482,-380 476,-380 476,-380 372,-380 372,-380 366,-380 360,-374 360,-368 360,-368 360,-300 360,-300 360,-294 366,-288 372,-288"/>
<text text-anchor="middle" x="424" y="-364.8" font-family="Arial" font-size="14.00" fill="#000000">walker </text>
<text text-anchor="middle" x="424" y="-349.8" font-family="Arial" font-size="14.00" fill="#000000">: ArmTableWalker</text>
</a>
</g>
</g>
<!-- system_system_port -->
<g id="node1" class="node"><title>system_system_port</title>
<path fill="#b6b8bc" stroke="#000000" d="M36.5,-297C36.5,-297 107.5,-297 107.5,-297 113.5,-297 119.5,-303 119.5,-309 119.5,-309 119.5,-321 119.5,-321 119.5,-327 113.5,-333 107.5,-333 107.5,-333 36.5,-333 36.5,-333 30.5,-333 24.5,-327 24.5,-321 24.5,-321 24.5,-309 24.5,-309 24.5,-303 30.5,-297 36.5,-297"/>
<text text-anchor="middle" x="72" y="-311.3" font-family="Arial" font-size="14.00" fill="#000000">system_port</text>
</g>
<!-- system_membus_slave -->
<g id="node3" class="node"><title>system_membus_slave</title>
<path fill="#586070" stroke="#000000" d="M283,-165C283,-165 313,-165 313,-165 319,-165 325,-171 325,-177 325,-177 325,-189 325,-189 325,-195 319,-201 313,-201 313,-201 283,-201 283,-201 277,-201 271,-195 271,-189 271,-189 271,-177 271,-177 271,-171 277,-165 283,-165"/>
<text text-anchor="middle" x="298" y="-179.3" font-family="Arial" font-size="14.00" fill="#000000">slave</text>
</g>
<!-- system_system_port&#45;&gt;system_membus_slave -->
<g id="edge1" class="edge"><title>system_system_port&#45;&gt;system_membus_slave</title>
<path fill="none" stroke="black" d="M92.1048,-296.9C101.992,-288.877 114.278,-279.463 126,-272 170.742,-243.512 225.838,-216.641 261.424,-200.259"/>
<polygon fill="black" stroke="black" points="263.276,-203.262 270.919,-195.924 260.369,-196.894 263.276,-203.262"/>
</g>
<!-- system_membus_master -->
<g id="node2" class="node"><title>system_membus_master</title>
<path fill="#586070" stroke="#000000" d="M355,-165C355,-165 391,-165 391,-165 397,-165 403,-171 403,-177 403,-177 403,-189 403,-189 403,-195 397,-201 391,-201 391,-201 355,-201 355,-201 349,-201 343,-195 343,-189 343,-189 343,-177 343,-177 343,-171 349,-165 355,-165"/>
<text text-anchor="middle" x="373" y="-179.3" font-family="Arial" font-size="14.00" fill="#000000">master</text>
</g>
<!-- system_mem_ctrls_port -->
<g id="node4" class="node"><title>system_mem_ctrls_port</title>
<path fill="#4b4746" stroke="#000000" d="M358,-33C358,-33 388,-33 388,-33 394,-33 400,-39 400,-45 400,-45 400,-57 400,-57 400,-63 394,-69 388,-69 388,-69 358,-69 358,-69 352,-69 346,-63 346,-57 346,-57 346,-45 346,-45 346,-39 352,-33 358,-33"/>
<text text-anchor="middle" x="373" y="-47.3" font-family="Arial" font-size="14.00" fill="#000000">port</text>
</g>
<!-- system_membus_master&#45;&gt;system_mem_ctrls_port -->
<g id="edge2" class="edge"><title>system_membus_master&#45;&gt;system_mem_ctrls_port</title>
<path fill="none" stroke="black" d="M373,-164.737C373,-142.981 373,-105.322 373,-79.5641"/>
<polygon fill="black" stroke="black" points="376.5,-79.3344 373,-69.3344 369.5,-79.3344 376.5,-79.3344"/>
</g>
<!-- system_cpu_icache_port -->
<g id="node5" class="node"><title>system_cpu_icache_port</title>
<path fill="#959ead" stroke="#000000" d="M264.5,-297C264.5,-297 331.5,-297 331.5,-297 337.5,-297 343.5,-303 343.5,-309 343.5,-309 343.5,-321 343.5,-321 343.5,-327 337.5,-333 331.5,-333 331.5,-333 264.5,-333 264.5,-333 258.5,-333 252.5,-327 252.5,-321 252.5,-321 252.5,-309 252.5,-309 252.5,-303 258.5,-297 264.5,-297"/>
<text text-anchor="middle" x="298" y="-311.3" font-family="Arial" font-size="14.00" fill="#000000">icache_port</text>
</g>
<!-- system_cpu_icache_port&#45;&gt;system_membus_slave -->
<g id="edge3" class="edge"><title>system_cpu_icache_port&#45;&gt;system_membus_slave</title>
<path fill="none" stroke="black" d="M298,-296.737C298,-274.981 298,-237.322 298,-211.564"/>
<polygon fill="black" stroke="black" points="301.5,-211.334 298,-201.334 294.5,-211.334 301.5,-211.334"/>
</g>
<!-- system_cpu_dcache_port -->
<g id="node6" class="node"><title>system_cpu_dcache_port</title>
<path fill="#959ead" stroke="#000000" d="M150,-297C150,-297 222,-297 222,-297 228,-297 234,-303 234,-309 234,-309 234,-321 234,-321 234,-327 228,-333 222,-333 222,-333 150,-333 150,-333 144,-333 138,-327 138,-321 138,-321 138,-309 138,-309 138,-303 144,-297 150,-297"/>
<text text-anchor="middle" x="186" y="-311.3" font-family="Arial" font-size="14.00" fill="#000000">dcache_port</text>
</g>
<!-- system_cpu_dcache_port&#45;&gt;system_membus_slave -->
<g id="edge4" class="edge"><title>system_cpu_dcache_port&#45;&gt;system_membus_slave</title>
<path fill="none" stroke="black" d="M200.873,-296.737C220.202,-274.301 254.102,-234.953 276.302,-209.185"/>
<polygon fill="black" stroke="black" points="279.19,-211.195 283.066,-201.334 273.887,-206.626 279.19,-211.195"/>
</g>
<!-- system_cpu_dtb_walker_port -->
<g id="node7" class="node"><title>system_cpu_dtb_walker_port</title>
<path fill="#7f7c77" stroke="#000000" d="M532,-297C532,-297 562,-297 562,-297 568,-297 574,-303 574,-309 574,-309 574,-321 574,-321 574,-327 568,-333 562,-333 562,-333 532,-333 532,-333 526,-333 520,-327 520,-321 520,-321 520,-309 520,-309 520,-303 526,-297 532,-297"/>
<text text-anchor="middle" x="547" y="-311.3" font-family="Arial" font-size="14.00" fill="#000000">port</text>
</g>
<!-- system_cpu_dtb_walker_port&#45;&gt;system_membus_slave -->
<g id="edge5" class="edge"><title>system_cpu_dtb_walker_port&#45;&gt;system_membus_slave</title>
<path fill="none" stroke="black" d="M529.149,-296.659C519.046,-287.857 505.713,-277.821 492,-272 426.62,-244.245 392.438,-288.373 334,-248 321.129,-239.107 312.325,-224.034 306.647,-210.748"/>
<polygon fill="black" stroke="black" points="309.774,-209.13 302.898,-201.069 303.246,-211.659 309.774,-209.13"/>
</g>
<!-- system_cpu_itb_walker_port -->
<g id="node8" class="node"><title>system_cpu_itb_walker_port</title>
<path fill="#7f7c77" stroke="#000000" d="M380,-297C380,-297 410,-297 410,-297 416,-297 422,-303 422,-309 422,-309 422,-321 422,-321 422,-327 416,-333 410,-333 410,-333 380,-333 380,-333 374,-333 368,-327 368,-321 368,-321 368,-309 368,-309 368,-303 374,-297 380,-297"/>
<text text-anchor="middle" x="395" y="-311.3" font-family="Arial" font-size="14.00" fill="#000000">port</text>
</g>
<!-- system_cpu_itb_walker_port&#45;&gt;system_membus_slave -->
<g id="edge6" class="edge"><title>system_cpu_itb_walker_port&#45;&gt;system_membus_slave</title>
<path fill="none" stroke="black" d="M383.865,-296.854C378.336,-288.911 371.288,-279.577 364,-272 352.163,-259.694 345.055,-261.013 334,-248 324.426,-236.731 316.138,-222.535 309.935,-210.377"/>
<polygon fill="black" stroke="black" points="312.963,-208.603 305.423,-201.16 306.676,-211.68 312.963,-208.603"/>
</g>
</g>
</svg>
