<?xml version="1.0" encoding="UTF-8" standalone="no"?>
<!DOCTYPE svg PUBLIC "-//W3C//DTD SVG 1.1//EN"
 "http://www.w3.org/Graphics/SVG/1.1/DTD/svg11.dtd">
<!-- Generated by graphviz version 2.36.0 (20140111.2315)
 -->
<!-- Title: G Pages: 1 -->
<svg width="872pt" height="1154pt"
 viewBox="0.00 0.00 872.00 1154.00" xmlns="http://www.w3.org/2000/svg" xmlns:xlink="http://www.w3.org/1999/xlink">
<g id="graph0" class="graph" transform="scale(1 1) rotate(0) translate(4 1150)">
<title>G</title>
<polygon fill="white" stroke="none" points="-4,4 -4,-1150 868,-1150 868,4 -4,4"/>
<g id="clust1" class="cluster"><title>cluster_root</title>
<g id="a_clust1"><a xlink:title="eventq_index&#61;0&#10;full_system&#61;false&#10;sim_quantum&#61;0&#10;time_sync_enable&#61;false&#10;time_sync_period&#61;100000000000&#10;time_sync_spin_threshold&#61;100000000">
<path fill="#bab6ae" stroke="#000000" d="M20,-8C20,-8 844,-8 844,-8 850,-8 856,-14 856,-20 856,-20 856,-1126 856,-1126 856,-1132 850,-1138 844,-1138 844,-1138 20,-1138 20,-1138 14,-1138 8,-1132 8,-1126 8,-1126 8,-20 8,-20 8,-14 14,-8 20,-8"/>
<text text-anchor="middle" x="432" y="-1122.8" font-family="Arial" font-size="14.00" fill="#000000">root </text>
<text text-anchor="middle" x="432" y="-1107.8" font-family="Arial" font-size="14.00" fill="#000000">: Root</text>
</a>
</g>
</g>
<g id="clust2" class="cluster"><title>cluster_system</title>
<g id="a_clust2"><a xlink:title="boot_osflags&#61;a&#10;cache_line_size&#61;64&#10;clk_domain&#61;system.clk_domain&#10;default_p_state&#61;UNDEFINED&#10;eventq_index&#61;0&#10;exit_on_work_items&#61;false&#10;init_param&#61;0&#10;kernel&#61;&#10;kernel_addr_check&#61;true&#10;load_addr_mask&#61;1099511627775&#10;load_offset&#61;0&#10;mem_mode&#61;timing&#10;mem_ranges&#61;0:2147483647 2147483648:2157969407&#10;memories&#61;system.physmem&#10;mmap_using_noreserve&#61;false&#10;multi_thread&#61;false&#10;num_work_ids&#61;16&#10;p_state_clk_gate_bins&#61;20&#10;p_state_clk_gate_max&#61;1000000000000&#10;p_state_clk_gate_min&#61;1000&#10;power_model&#61;Null&#10;readfile&#61;&#10;symbolfile&#61;&#10;thermal_components&#61;&#10;thermal_model&#61;Null&#10;work_begin_ckpt_count&#61;0&#10;work_begin_cpu_id_exit&#61;&#45;1&#10;work_begin_exit_count&#61;0&#10;work_cpus_ckpt_count&#61;0&#10;work_end_ckpt_count&#61;0&#10;work_end_exit_count&#61;0&#10;work_item_id&#61;&#45;1">
<path fill="#e4e7eb" stroke="#000000" d="M28,-16C28,-16 836,-16 836,-16 842,-16 848,-22 848,-28 848,-28 848,-1080 848,-1080 848,-1086 842,-1092 836,-1092 836,-1092 28,-1092 28,-1092 22,-1092 16,-1086 16,-1080 16,-1080 16,-28 16,-28 16,-22 22,-16 28,-16"/>
<text text-anchor="middle" x="432" y="-1076.8" font-family="Arial" font-size="14.00" fill="#000000">system </text>
<text text-anchor="middle" x="432" y="-1061.8" font-family="Arial" font-size="14.00" fill="#000000">: System</text>
</a>
</g>
</g>
<g id="clust3" class="cluster"><title>cluster_system_membus</title>
<g id="a_clust3"><a xlink:title="clk_domain&#61;system.clk_domain&#10;default_p_state&#61;UNDEFINED&#10;eventq_index&#61;0&#10;forward_latency&#61;1&#10;frontend_latency&#61;2&#10;p_state_clk_gate_bins&#61;20&#10;p_state_clk_gate_max&#61;1000000000000&#10;p_state_clk_gate_min&#61;1000&#10;point_of_coherency&#61;true&#10;power_model&#61;Null&#10;response_latency&#61;2&#10;snoop_filter&#61;Null&#10;snoop_response_latency&#61;2&#10;system&#61;system&#10;use_default_range&#61;false&#10;width&#61;8">
<path fill="#6f798c" stroke="#000000" d="M83,-420C83,-420 207,-420 207,-420 213,-420 219,-426 219,-432 219,-432 219,-500 219,-500 219,-506 213,-512 207,-512 207,-512 83,-512 83,-512 77,-512 71,-506 71,-500 71,-500 71,-432 71,-432 71,-426 77,-420 83,-420"/>
<text text-anchor="middle" x="145" y="-496.8" font-family="Arial" font-size="14.00" fill="#000000">membus </text>
<text text-anchor="middle" x="145" y="-481.8" font-family="Arial" font-size="14.00" fill="#000000">: SystemXBar</text>
</a>
</g>
</g>
<g id="clust4" class="cluster"><title>cluster_system_cam_ctrl</title>
<g id="a_clust4"><a xlink:title="clk_domain&#61;system.clk_domain&#10;default_p_state&#61;UNDEFINED&#10;devicename&#61;Drone Camera&#10;eventq_index&#61;0&#10;p_state_clk_gate_bins&#61;20&#10;p_state_clk_gate_max&#61;1000000000000&#10;p_state_clk_gate_min&#61;1000&#10;pio_addr&#61;2147483648&#10;pio_latency&#61;1000000&#10;pio_size&#61;5760056&#10;power_model&#61;Null&#10;system&#61;system">
<path fill="#c7a793" stroke="#000000" d="M223,-24C223,-24 318,-24 318,-24 324,-24 330,-30 330,-36 330,-36 330,-104 330,-104 330,-110 324,-116 318,-116 318,-116 223,-116 223,-116 217,-116 211,-110 211,-104 211,-104 211,-36 211,-36 211,-30 217,-24 223,-24"/>
<text text-anchor="middle" x="270.5" y="-100.8" font-family="Arial" font-size="14.00" fill="#000000">cam_ctrl </text>
<text text-anchor="middle" x="270.5" y="-85.8" font-family="Arial" font-size="14.00" fill="#000000">: CameraDevice</text>
</a>
</g>
</g>
<g id="clust5" class="cluster"><title>cluster_system_bridge</title>
<g id="a_clust5"><a xlink:title="clk_domain&#61;system.clk_domain&#10;default_p_state&#61;UNDEFINED&#10;delay&#61;0&#10;eventq_index&#61;0&#10;p_state_clk_gate_bins&#61;20&#10;p_state_clk_gate_max&#61;1000000000000&#10;p_state_clk_gate_min&#61;1000&#10;power_model&#61;Null&#10;ranges&#61;2147483648:2157969407&#10;req_size&#61;16&#10;resp_size&#61;16">
<path fill="#bab6ae" stroke="#000000" d="M97,-288C97,-288 221,-288 221,-288 227,-288 233,-294 233,-300 233,-300 233,-368 233,-368 233,-374 227,-380 221,-380 221,-380 97,-380 97,-380 91,-380 85,-374 85,-368 85,-368 85,-300 85,-300 85,-294 91,-288 97,-288"/>
<text text-anchor="middle" x="159" y="-364.8" font-family="Arial" font-size="14.00" fill="#000000">bridge </text>
<text text-anchor="middle" x="159" y="-349.8" font-family="Arial" font-size="14.00" fill="#000000">: Bridge</text>
</a>
</g>
</g>
<g id="clust7" class="cluster"><title>cluster_system_physmem</title>
<g id="a_clust7"><a xlink:title="bandwidth&#61;62.000000&#10;clk_domain&#61;system.clk_domain&#10;conf_table_reported&#61;true&#10;default_p_state&#61;UNDEFINED&#10;eventq_index&#61;0&#10;in_addr_map&#61;true&#10;latency&#61;10000&#10;latency_var&#61;0&#10;null&#61;false&#10;p_state_clk_gate_bins&#61;20&#10;p_state_clk_gate_max&#61;1000000000000&#10;p_state_clk_gate_min&#61;1000&#10;power_model&#61;Null&#10;range&#61;0:2147483647">
<path fill="#5e5958" stroke="#000000" d="M253,-288C253,-288 348,-288 348,-288 354,-288 360,-294 360,-300 360,-300 360,-368 360,-368 360,-374 354,-380 348,-380 348,-380 253,-380 253,-380 247,-380 241,-374 241,-368 241,-368 241,-300 241,-300 241,-294 247,-288 253,-288"/>
<text text-anchor="middle" x="300.5" y="-364.8" font-family="Arial" font-size="14.00" fill="#000000">physmem </text>
<text text-anchor="middle" x="300.5" y="-349.8" font-family="Arial" font-size="14.00" fill="#000000">: SimpleMemory</text>
</a>
</g>
</g>
<g id="clust10" class="cluster"><title>cluster_system_iobus</title>
<g id="a_clust10"><a xlink:title="clk_domain&#61;system.clk_domain&#10;default_p_state&#61;UNDEFINED&#10;eventq_index&#61;0&#10;forward_latency&#61;1&#10;frontend_latency&#61;2&#10;p_state_clk_gate_bins&#61;20&#10;p_state_clk_gate_max&#61;1000000000000&#10;p_state_clk_gate_min&#61;1000&#10;power_model&#61;Null&#10;response_latency&#61;2&#10;use_default_range&#61;false&#10;width&#61;8">
<path fill="#6f798c" stroke="#000000" d="M172,-156C172,-156 296,-156 296,-156 302,-156 308,-162 308,-168 308,-168 308,-236 308,-236 308,-242 302,-248 296,-248 296,-248 172,-248 172,-248 166,-248 160,-242 160,-236 160,-236 160,-168 160,-168 160,-162 166,-156 172,-156"/>
<text text-anchor="middle" x="234" y="-232.8" font-family="Arial" font-size="14.00" fill="#000000">iobus </text>
<text text-anchor="middle" x="234" y="-217.8" font-family="Arial" font-size="14.00" fill="#000000">: IOXBar</text>
</a>
</g>
</g>
<g id="clust12" class="cluster"><title>cluster_system_cpu</title>
<g id="a_clust12"><a xlink:title="branchPred&#61;Null&#10;checker&#61;Null&#10;clk_domain&#61;system.clk_domain&#10;cpu_id&#61;&#45;1&#10;default_p_state&#61;UNDEFINED&#10;do_checkpoint_insts&#61;true&#10;do_quiesce&#61;true&#10;do_statistics_insts&#61;true&#10;dstage2_mmu&#61;system.cpu.dstage2_mmu&#10;dtb&#61;system.cpu.dtb&#10;eventq_index&#61;0&#10;function_trace&#61;false&#10;function_trace_start&#61;0&#10;interrupts&#61;system.cpu.interrupts&#10;isa&#61;system.cpu.isa&#10;istage2_mmu&#61;system.cpu.istage2_mmu&#10;itb&#61;system.cpu.itb&#10;max_insts_all_threads&#61;0&#10;max_insts_any_thread&#61;0&#10;max_loads_all_threads&#61;0&#10;max_loads_any_thread&#61;0&#10;numThreads&#61;1&#10;p_state_clk_gate_bins&#61;20&#10;p_state_clk_gate_max&#61;1000000000000&#10;p_state_clk_gate_min&#61;1000&#10;power_model&#61;Null&#10;profile&#61;0&#10;progress_interval&#61;0&#10;simpoint_start_insts&#61;&#10;socket_id&#61;0&#10;switched_out&#61;false&#10;system&#61;system&#10;tracer&#61;system.cpu.tracer&#10;workload&#61;system.cpu.workload">
<path fill="#bbc6d9" stroke="#000000" d="M140,-544C140,-544 828,-544 828,-544 834,-544 840,-550 840,-556 840,-556 840,-1034 840,-1034 840,-1040 834,-1046 828,-1046 828,-1046 140,-1046 140,-1046 134,-1046 128,-1040 128,-1034 128,-1034 128,-556 128,-556 128,-550 134,-544 140,-544"/>
<text text-anchor="middle" x="484" y="-1030.8" font-family="Arial" font-size="14.00" fill="#000000">cpu </text>
<text text-anchor="middle" x="484" y="-1015.8" font-family="Arial" font-size="14.00" fill="#000000">: TimingSimpleCPU</text>
</a>
</g>
</g>
<g id="clust13" class="cluster"><title>cluster_system_cpu_icache</title>
<g id="a_clust13"><a xlink:title="addr_ranges&#61;0:18446744073709551615&#10;assoc&#61;2&#10;clk_domain&#61;system.clk_domain&#10;clusivity&#61;mostly_incl&#10;default_p_state&#61;UNDEFINED&#10;demand_mshr_reserve&#61;1&#10;eventq_index&#61;0&#10;hit_latency&#61;2&#10;is_read_only&#61;true&#10;max_miss_count&#61;0&#10;mshrs&#61;4&#10;p_state_clk_gate_bins&#61;20&#10;p_state_clk_gate_max&#61;1000000000000&#10;p_state_clk_gate_min&#61;1000&#10;power_model&#61;Null&#10;prefetch_on_access&#61;false&#10;prefetcher&#61;Null&#10;response_latency&#61;2&#10;sequential_access&#61;false&#10;size&#61;32768&#10;system&#61;system&#10;tags&#61;system.cpu.icache.tags&#10;tgts_per_mshr&#61;20&#10;write_buffers&#61;8&#10;writeback_clean&#61;true">
<path fill="#bab6ae" stroke="#000000" d="M348,-816C348,-816 516,-816 516,-816 522,-816 528,-822 528,-828 528,-828 528,-896 528,-896 528,-902 522,-908 516,-908 516,-908 348,-908 348,-908 342,-908 336,-902 336,-896 336,-896 336,-828 336,-828 336,-822 342,-816 348,-816"/>
<text text-anchor="middle" x="432" y="-892.8" font-family="Arial" font-size="14.00" fill="#000000">icache </text>
<text text-anchor="middle" x="432" y="-877.8" font-family="Arial" font-size="14.00" fill="#000000">: L1_ICache</text>
</a>
</g>
</g>
<g id="clust15" class="cluster"><title>cluster_system_cpu_dtb</title>
<g id="a_clust15"><a xlink:title="eventq_index&#61;0&#10;is_stage2&#61;false&#10;size&#61;64&#10;walker&#61;system.cpu.dtb.walker">
<path fill="#bab6ae" stroke="#000000" d="M700,-808C700,-808 820,-808 820,-808 826,-808 832,-814 832,-820 832,-820 832,-942 832,-942 832,-948 826,-954 820,-954 820,-954 700,-954 700,-954 694,-954 688,-948 688,-942 688,-942 688,-820 688,-820 688,-814 694,-808 700,-808"/>
<text text-anchor="middle" x="760" y="-938.8" font-family="Arial" font-size="14.00" fill="#000000">dtb </text>
<text text-anchor="middle" x="760" y="-923.8" font-family="Arial" font-size="14.00" fill="#000000">: ArmTLB</text>
</a>
</g>
</g>
<g id="clust16" class="cluster"><title>cluster_system_cpu_dtb_walker</title>
<g id="a_clust16"><a xlink:title="clk_domain&#61;system.clk_domain&#10;default_p_state&#61;UNDEFINED&#10;eventq_index&#61;0&#10;is_stage2&#61;false&#10;num_squash_per_cycle&#61;2&#10;p_state_clk_gate_bins&#61;20&#10;p_state_clk_gate_max&#61;1000000000000&#10;p_state_clk_gate_min&#61;1000&#10;power_model&#61;Null&#10;sys&#61;system">
<path fill="#9f9c95" stroke="#000000" d="M708,-816C708,-816 812,-816 812,-816 818,-816 824,-822 824,-828 824,-828 824,-896 824,-896 824,-902 818,-908 812,-908 812,-908 708,-908 708,-908 702,-908 696,-902 696,-896 696,-896 696,-828 696,-828 696,-822 702,-816 708,-816"/>
<text text-anchor="middle" x="760" y="-892.8" font-family="Arial" font-size="14.00" fill="#000000">walker </text>
<text text-anchor="middle" x="760" y="-877.8" font-family="Arial" font-size="14.00" fill="#000000">: ArmTableWalker</text>
</a>
</g>
</g>
<g id="clust18" class="cluster"><title>cluster_system_cpu_l2cache</title>
<g id="a_clust18"><a xlink:title="addr_ranges&#61;0:18446744073709551615&#10;assoc&#61;8&#10;clk_domain&#61;system.clk_domain&#10;clusivity&#61;mostly_incl&#10;default_p_state&#61;UNDEFINED&#10;demand_mshr_reserve&#61;1&#10;eventq_index&#61;0&#10;hit_latency&#61;20&#10;is_read_only&#61;false&#10;max_miss_count&#61;0&#10;mshrs&#61;20&#10;p_state_clk_gate_bins&#61;20&#10;p_state_clk_gate_max&#61;1000000000000&#10;p_state_clk_gate_min&#61;1000&#10;power_model&#61;Null&#10;prefetch_on_access&#61;false&#10;prefetcher&#61;Null&#10;response_latency&#61;20&#10;sequential_access&#61;false&#10;size&#61;2097152&#10;system&#61;system&#10;tags&#61;system.cpu.l2cache.tags&#10;tgts_per_mshr&#61;12&#10;write_buffers&#61;8&#10;writeback_clean&#61;false">
<path fill="#bab6ae" stroke="#000000" d="M334,-552C334,-552 502,-552 502,-552 508,-552 514,-558 514,-564 514,-564 514,-632 514,-632 514,-638 508,-644 502,-644 502,-644 334,-644 334,-644 328,-644 322,-638 322,-632 322,-632 322,-564 322,-564 322,-558 328,-552 334,-552"/>
<text text-anchor="middle" x="418" y="-628.8" font-family="Arial" font-size="14.00" fill="#000000">l2cache </text>
<text text-anchor="middle" x="418" y="-613.8" font-family="Arial" font-size="14.00" fill="#000000">: L2Cache</text>
</a>
</g>
</g>
<g id="clust20" class="cluster"><title>cluster_system_cpu_itb</title>
<g id="a_clust20"><a xlink:title="eventq_index&#61;0&#10;is_stage2&#61;false&#10;size&#61;64&#10;walker&#61;system.cpu.itb.walker">
<path fill="#bab6ae" stroke="#000000" d="M548,-808C548,-808 668,-808 668,-808 674,-808 680,-814 680,-820 680,-820 680,-942 680,-942 680,-948 674,-954 668,-954 668,-954 548,-954 548,-954 542,-954 536,-948 536,-942 536,-942 536,-820 536,-820 536,-814 542,-808 548,-808"/>
<text text-anchor="middle" x="608" y="-938.8" font-family="Arial" font-size="14.00" fill="#000000">itb </text>
<text text-anchor="middle" x="608" y="-923.8" font-family="Arial" font-size="14.00" fill="#000000">: ArmTLB</text>
</a>
</g>
</g>
<g id="clust21" class="cluster"><title>cluster_system_cpu_itb_walker</title>
<g id="a_clust21"><a xlink:title="clk_domain&#61;system.clk_domain&#10;default_p_state&#61;UNDEFINED&#10;eventq_index&#61;0&#10;is_stage2&#61;false&#10;num_squash_per_cycle&#61;2&#10;p_state_clk_gate_bins&#61;20&#10;p_state_clk_gate_max&#61;1000000000000&#10;p_state_clk_gate_min&#61;1000&#10;power_model&#61;Null&#10;sys&#61;system">
<path fill="#9f9c95" stroke="#000000" d="M556,-816C556,-816 660,-816 660,-816 666,-816 672,-822 672,-828 672,-828 672,-896 672,-896 672,-902 666,-908 660,-908 660,-908 556,-908 556,-908 550,-908 544,-902 544,-896 544,-896 544,-828 544,-828 544,-822 550,-816 556,-816"/>
<text text-anchor="middle" x="608" y="-892.8" font-family="Arial" font-size="14.00" fill="#000000">walker </text>
<text text-anchor="middle" x="608" y="-877.8" font-family="Arial" font-size="14.00" fill="#000000">: ArmTableWalker</text>
</a>
</g>
</g>
<g id="clust29" class="cluster"><title>cluster_system_cpu_dcache</title>
<g id="a_clust29"><a xlink:title="addr_ranges&#61;0:18446744073709551615&#10;assoc&#61;2&#10;clk_domain&#61;system.clk_domain&#10;clusivity&#61;mostly_incl&#10;default_p_state&#61;UNDEFINED&#10;demand_mshr_reserve&#61;1&#10;eventq_index&#61;0&#10;hit_latency&#61;1&#10;is_read_only&#61;false&#10;max_miss_count&#61;0&#10;mshrs&#61;4&#10;p_state_clk_gate_bins&#61;20&#10;p_state_clk_gate_max&#61;1000000000000&#10;p_state_clk_gate_min&#61;1000&#10;power_model&#61;Null&#10;prefetch_on_access&#61;false&#10;prefetcher&#61;Null&#10;response_latency&#61;1&#10;sequential_access&#61;false&#10;size&#61;32768&#10;system&#61;system&#10;tags&#61;system.cpu.dcache.tags&#10;tgts_per_mshr&#61;20&#10;write_buffers&#61;8&#10;writeback_clean&#61;false">
<path fill="#bab6ae" stroke="#000000" d="M148,-816C148,-816 316,-816 316,-816 322,-816 328,-822 328,-828 328,-828 328,-896 328,-896 328,-902 322,-908 316,-908 316,-908 148,-908 148,-908 142,-908 136,-902 136,-896 136,-896 136,-828 136,-828 136,-822 142,-816 148,-816"/>
<text text-anchor="middle" x="232" y="-892.8" font-family="Arial" font-size="14.00" fill="#000000">dcache </text>
<text text-anchor="middle" x="232" y="-877.8" font-family="Arial" font-size="14.00" fill="#000000">: L1_DCache</text>
</a>
</g>
</g>
<g id="clust31" class="cluster"><title>cluster_system_cpu_toL2Bus</title>
<g id="a_clust31"><a xlink:title="clk_domain&#61;system.clk_domain&#10;default_p_state&#61;UNDEFINED&#10;eventq_index&#61;0&#10;forward_latency&#61;0&#10;frontend_latency&#61;1&#10;p_state_clk_gate_bins&#61;20&#10;p_state_clk_gate_max&#61;1000000000000&#10;p_state_clk_gate_min&#61;1000&#10;point_of_coherency&#61;false&#10;power_model&#61;Null&#10;response_latency&#61;1&#10;snoop_filter&#61;system.cpu.toL2Bus.snoop_filter&#10;snoop_response_latency&#61;1&#10;system&#61;system&#10;use_default_range&#61;false&#10;width&#61;32">
<path fill="#6f798c" stroke="#000000" d="M455,-684C455,-684 579,-684 579,-684 585,-684 591,-690 591,-696 591,-696 591,-764 591,-764 591,-770 585,-776 579,-776 579,-776 455,-776 455,-776 449,-776 443,-770 443,-764 443,-764 443,-696 443,-696 443,-690 449,-684 455,-684"/>
<text text-anchor="middle" x="517" y="-760.8" font-family="Arial" font-size="14.00" fill="#000000">toL2Bus </text>
<text text-anchor="middle" x="517" y="-745.8" font-family="Arial" font-size="14.00" fill="#000000">: L2XBar</text>
</a>
</g>
</g>
<!-- system_system_port -->
<g id="node1" class="node"><title>system_system_port</title>
<path fill="#b6b8bc" stroke="#000000" d="M36.5,-561C36.5,-561 107.5,-561 107.5,-561 113.5,-561 119.5,-567 119.5,-573 119.5,-573 119.5,-585 119.5,-585 119.5,-591 113.5,-597 107.5,-597 107.5,-597 36.5,-597 36.5,-597 30.5,-597 24.5,-591 24.5,-585 24.5,-585 24.5,-573 24.5,-573 24.5,-567 30.5,-561 36.5,-561"/>
<text text-anchor="middle" x="72" y="-575.3" font-family="Arial" font-size="14.00" fill="#000000">system_port</text>
</g>
<!-- system_membus_slave -->
<g id="node3" class="node"><title>system_membus_slave</title>
<path fill="#586070" stroke="#000000" d="M91,-429C91,-429 121,-429 121,-429 127,-429 133,-435 133,-441 133,-441 133,-453 133,-453 133,-459 127,-465 121,-465 121,-465 91,-465 91,-465 85,-465 79,-459 79,-453 79,-453 79,-441 79,-441 79,-435 85,-429 91,-429"/>
<text text-anchor="middle" x="106" y="-443.3" font-family="Arial" font-size="14.00" fill="#000000">slave</text>
</g>
<!-- system_system_port&#45;&gt;system_membus_slave -->
<g id="edge1" class="edge"><title>system_system_port&#45;&gt;system_membus_slave</title>
<path fill="none" stroke="black" d="M76.5149,-560.737C82.2304,-538.884 92.1422,-500.986 98.881,-475.22"/>
<polygon fill="black" stroke="black" points="102.322,-475.895 101.466,-465.334 95.5499,-474.123 102.322,-475.895"/>
</g>
<!-- system_membus_master -->
<g id="node2" class="node"><title>system_membus_master</title>
<path fill="#586070" stroke="#000000" d="M163,-429C163,-429 199,-429 199,-429 205,-429 211,-435 211,-441 211,-441 211,-453 211,-453 211,-459 205,-465 199,-465 199,-465 163,-465 163,-465 157,-465 151,-459 151,-453 151,-453 151,-441 151,-441 151,-435 157,-429 163,-429"/>
<text text-anchor="middle" x="181" y="-443.3" font-family="Arial" font-size="14.00" fill="#000000">master</text>
</g>
<!-- system_bridge_slave -->
<g id="node6" class="node"><title>system_bridge_slave</title>
<path fill="#94918b" stroke="#000000" d="M105,-297C105,-297 135,-297 135,-297 141,-297 147,-303 147,-309 147,-309 147,-321 147,-321 147,-327 141,-333 135,-333 135,-333 105,-333 105,-333 99,-333 93,-327 93,-321 93,-321 93,-309 93,-309 93,-303 99,-297 105,-297"/>
<text text-anchor="middle" x="120" y="-311.3" font-family="Arial" font-size="14.00" fill="#000000">slave</text>
</g>
<!-- system_membus_master&#45;&gt;system_bridge_slave -->
<g id="edge3" class="edge"><title>system_membus_master&#45;&gt;system_bridge_slave</title>
<path fill="none" stroke="black" d="M172.9,-428.737C162.554,-406.689 144.546,-368.311 132.451,-342.536"/>
<polygon fill="black" stroke="black" points="135.55,-340.901 128.134,-333.334 129.213,-343.874 135.55,-340.901"/>
</g>
<!-- system_physmem_port -->
<g id="node7" class="node"><title>system_physmem_port</title>
<path fill="#4b4746" stroke="#000000" d="M261,-297C261,-297 291,-297 291,-297 297,-297 303,-303 303,-309 303,-309 303,-321 303,-321 303,-327 297,-333 291,-333 291,-333 261,-333 261,-333 255,-333 249,-327 249,-321 249,-321 249,-309 249,-309 249,-303 255,-297 261,-297"/>
<text text-anchor="middle" x="276" y="-311.3" font-family="Arial" font-size="14.00" fill="#000000">port</text>
</g>
<!-- system_membus_master&#45;&gt;system_physmem_port -->
<g id="edge2" class="edge"><title>system_membus_master&#45;&gt;system_physmem_port</title>
<path fill="none" stroke="black" d="M196.747,-428.957C208.42,-415.973 224.419,-397.421 237,-380 245.716,-367.931 254.431,-353.866 261.405,-342"/>
<polygon fill="black" stroke="black" points="264.613,-343.444 266.592,-333.036 258.554,-339.939 264.613,-343.444"/>
</g>
<!-- system_cam_ctrl_pio -->
<g id="node4" class="node"><title>system_cam_ctrl_pio</title>
<path fill="#9f8575" stroke="#000000" d="M255,-33C255,-33 285,-33 285,-33 291,-33 297,-39 297,-45 297,-45 297,-57 297,-57 297,-63 291,-69 285,-69 285,-69 255,-69 255,-69 249,-69 243,-63 243,-57 243,-57 243,-45 243,-45 243,-39 249,-33 255,-33"/>
<text text-anchor="middle" x="270" y="-47.3" font-family="Arial" font-size="14.00" fill="#000000">pio</text>
</g>
<!-- system_bridge_master -->
<g id="node5" class="node"><title>system_bridge_master</title>
<path fill="#94918b" stroke="#000000" d="M177,-297C177,-297 213,-297 213,-297 219,-297 225,-303 225,-309 225,-309 225,-321 225,-321 225,-327 219,-333 213,-333 213,-333 177,-333 177,-333 171,-333 165,-327 165,-321 165,-321 165,-309 165,-309 165,-303 171,-297 177,-297"/>
<text text-anchor="middle" x="195" y="-311.3" font-family="Arial" font-size="14.00" fill="#000000">master</text>
</g>
<!-- system_iobus_slave -->
<g id="node9" class="node"><title>system_iobus_slave</title>
<path fill="#586070" stroke="#000000" d="M180,-165C180,-165 210,-165 210,-165 216,-165 222,-171 222,-177 222,-177 222,-189 222,-189 222,-195 216,-201 210,-201 210,-201 180,-201 180,-201 174,-201 168,-195 168,-189 168,-189 168,-177 168,-177 168,-171 174,-165 180,-165"/>
<text text-anchor="middle" x="195" y="-179.3" font-family="Arial" font-size="14.00" fill="#000000">slave</text>
</g>
<!-- system_bridge_master&#45;&gt;system_iobus_slave -->
<g id="edge4" class="edge"><title>system_bridge_master&#45;&gt;system_iobus_slave</title>
<path fill="none" stroke="black" d="M195,-296.737C195,-274.981 195,-237.322 195,-211.564"/>
<polygon fill="black" stroke="black" points="198.5,-211.334 195,-201.334 191.5,-211.334 198.5,-211.334"/>
</g>
<!-- system_iobus_master -->
<g id="node8" class="node"><title>system_iobus_master</title>
<path fill="#586070" stroke="#000000" d="M252,-165C252,-165 288,-165 288,-165 294,-165 300,-171 300,-177 300,-177 300,-189 300,-189 300,-195 294,-201 288,-201 288,-201 252,-201 252,-201 246,-201 240,-195 240,-189 240,-189 240,-177 240,-177 240,-171 246,-165 252,-165"/>
<text text-anchor="middle" x="270" y="-179.3" font-family="Arial" font-size="14.00" fill="#000000">master</text>
</g>
<!-- system_iobus_master&#45;&gt;system_cam_ctrl_pio -->
<g id="edge5" class="edge"><title>system_iobus_master&#45;&gt;system_cam_ctrl_pio</title>
<path fill="none" stroke="black" d="M270,-164.737C270,-142.981 270,-105.322 270,-79.5641"/>
<polygon fill="black" stroke="black" points="273.5,-79.3344 270,-69.3344 266.5,-79.3344 273.5,-79.3344"/>
</g>
<!-- system_cpu_icache_port -->
<g id="node10" class="node"><title>system_cpu_icache_port</title>
<path fill="#959ead" stroke="#000000" d="M347.5,-963C347.5,-963 414.5,-963 414.5,-963 420.5,-963 426.5,-969 426.5,-975 426.5,-975 426.5,-987 426.5,-987 426.5,-993 420.5,-999 414.5,-999 414.5,-999 347.5,-999 347.5,-999 341.5,-999 335.5,-993 335.5,-987 335.5,-987 335.5,-975 335.5,-975 335.5,-969 341.5,-963 347.5,-963"/>
<text text-anchor="middle" x="381" y="-977.3" font-family="Arial" font-size="14.00" fill="#000000">icache_port</text>
</g>
<!-- system_cpu_icache_cpu_side -->
<g id="node13" class="node"><title>system_cpu_icache_cpu_side</title>
<path fill="#94918b" stroke="#000000" d="M355.5,-825C355.5,-825 406.5,-825 406.5,-825 412.5,-825 418.5,-831 418.5,-837 418.5,-837 418.5,-849 418.5,-849 418.5,-855 412.5,-861 406.5,-861 406.5,-861 355.5,-861 355.5,-861 349.5,-861 343.5,-855 343.5,-849 343.5,-849 343.5,-837 343.5,-837 343.5,-831 349.5,-825 355.5,-825"/>
<text text-anchor="middle" x="381" y="-839.3" font-family="Arial" font-size="14.00" fill="#000000">cpu_side</text>
</g>
<!-- system_cpu_icache_port&#45;&gt;system_cpu_icache_cpu_side -->
<g id="edge6" class="edge"><title>system_cpu_icache_port&#45;&gt;system_cpu_icache_cpu_side</title>
<path fill="none" stroke="black" d="M381,-962.776C381,-939.681 381,-898.432 381,-871.14"/>
<polygon fill="black" stroke="black" points="384.5,-871.085 381,-861.085 377.5,-871.085 384.5,-871.085"/>
</g>
<!-- system_cpu_dcache_port -->
<g id="node11" class="node"><title>system_cpu_dcache_port</title>
<path fill="#959ead" stroke="#000000" d="M148,-963C148,-963 220,-963 220,-963 226,-963 232,-969 232,-975 232,-975 232,-987 232,-987 232,-993 226,-999 220,-999 220,-999 148,-999 148,-999 142,-999 136,-993 136,-987 136,-987 136,-975 136,-975 136,-969 142,-963 148,-963"/>
<text text-anchor="middle" x="184" y="-977.3" font-family="Arial" font-size="14.00" fill="#000000">dcache_port</text>
</g>
<!-- system_cpu_dcache_cpu_side -->
<g id="node19" class="node"><title>system_cpu_dcache_cpu_side</title>
<path fill="#94918b" stroke="#000000" d="M155.5,-825C155.5,-825 206.5,-825 206.5,-825 212.5,-825 218.5,-831 218.5,-837 218.5,-837 218.5,-849 218.5,-849 218.5,-855 212.5,-861 206.5,-861 206.5,-861 155.5,-861 155.5,-861 149.5,-861 143.5,-855 143.5,-849 143.5,-849 143.5,-837 143.5,-837 143.5,-831 149.5,-825 155.5,-825"/>
<text text-anchor="middle" x="181" y="-839.3" font-family="Arial" font-size="14.00" fill="#000000">cpu_side</text>
</g>
<!-- system_cpu_dcache_port&#45;&gt;system_cpu_dcache_cpu_side -->
<g id="edge7" class="edge"><title>system_cpu_dcache_port&#45;&gt;system_cpu_dcache_cpu_side</title>
<path fill="none" stroke="black" d="M183.62,-962.776C183.111,-939.681 182.201,-898.432 181.599,-871.14"/>
<polygon fill="black" stroke="black" points="185.097,-871.005 181.377,-861.085 178.098,-871.159 185.097,-871.005"/>
</g>
<!-- system_cpu_icache_mem_side -->
<g id="node12" class="node"><title>system_cpu_icache_mem_side</title>
<path fill="#94918b" stroke="#000000" d="M448,-825C448,-825 508,-825 508,-825 514,-825 520,-831 520,-837 520,-837 520,-849 520,-849 520,-855 514,-861 508,-861 508,-861 448,-861 448,-861 442,-861 436,-855 436,-849 436,-849 436,-837 436,-837 436,-831 442,-825 448,-825"/>
<text text-anchor="middle" x="478" y="-839.3" font-family="Arial" font-size="14.00" fill="#000000">mem_side</text>
</g>
<!-- system_cpu_toL2Bus_slave -->
<g id="node21" class="node"><title>system_cpu_toL2Bus_slave</title>
<path fill="#586070" stroke="#000000" d="M463,-693C463,-693 493,-693 493,-693 499,-693 505,-699 505,-705 505,-705 505,-717 505,-717 505,-723 499,-729 493,-729 493,-729 463,-729 463,-729 457,-729 451,-723 451,-717 451,-717 451,-705 451,-705 451,-699 457,-693 463,-693"/>
<text text-anchor="middle" x="478" y="-707.3" font-family="Arial" font-size="14.00" fill="#000000">slave</text>
</g>
<!-- system_cpu_icache_mem_side&#45;&gt;system_cpu_toL2Bus_slave -->
<g id="edge8" class="edge"><title>system_cpu_icache_mem_side&#45;&gt;system_cpu_toL2Bus_slave</title>
<path fill="none" stroke="black" d="M478,-824.737C478,-802.981 478,-765.322 478,-739.564"/>
<polygon fill="black" stroke="black" points="481.5,-739.334 478,-729.334 474.5,-739.334 481.5,-739.334"/>
</g>
<!-- system_cpu_dtb_walker_port -->
<g id="node14" class="node"><title>system_cpu_dtb_walker_port</title>
<path fill="#7f7c77" stroke="#000000" d="M716,-825C716,-825 746,-825 746,-825 752,-825 758,-831 758,-837 758,-837 758,-849 758,-849 758,-855 752,-861 746,-861 746,-861 716,-861 716,-861 710,-861 704,-855 704,-849 704,-849 704,-837 704,-837 704,-831 710,-825 716,-825"/>
<text text-anchor="middle" x="731" y="-839.3" font-family="Arial" font-size="14.00" fill="#000000">port</text>
</g>
<!-- system_cpu_dtb_walker_port&#45;&gt;system_cpu_toL2Bus_slave -->
<g id="edge9" class="edge"><title>system_cpu_dtb_walker_port&#45;&gt;system_cpu_toL2Bus_slave</title>
<path fill="none" stroke="black" d="M707.618,-824.966C698.195,-818.804 686.971,-812.31 676,-808 607.691,-781.163 573.444,-819.043 514,-776 501.411,-766.884 492.647,-751.935 486.921,-738.776"/>
<polygon fill="black" stroke="black" points="490.06,-737.196 483.121,-729.189 483.552,-739.775 490.06,-737.196"/>
</g>
<!-- system_cpu_l2cache_mem_side -->
<g id="node15" class="node"><title>system_cpu_l2cache_mem_side</title>
<path fill="#94918b" stroke="#000000" d="M434,-561C434,-561 494,-561 494,-561 500,-561 506,-567 506,-573 506,-573 506,-585 506,-585 506,-591 500,-597 494,-597 494,-597 434,-597 434,-597 428,-597 422,-591 422,-585 422,-585 422,-573 422,-573 422,-567 428,-561 434,-561"/>
<text text-anchor="middle" x="464" y="-575.3" font-family="Arial" font-size="14.00" fill="#000000">mem_side</text>
</g>
<!-- system_cpu_l2cache_mem_side&#45;&gt;system_membus_slave -->
<g id="edge10" class="edge"><title>system_cpu_l2cache_mem_side&#45;&gt;system_membus_slave</title>
<path fill="none" stroke="black" d="M442.893,-560.674C434.148,-554.396 423.585,-547.897 413,-544 299.187,-502.098 242.914,-579.272 142,-512 128.983,-503.322 120.173,-488.257 114.528,-474.923"/>
<polygon fill="black" stroke="black" points="117.651,-473.289 110.811,-465.198 111.112,-475.788 117.651,-473.289"/>
</g>
<!-- system_cpu_l2cache_cpu_side -->
<g id="node16" class="node"><title>system_cpu_l2cache_cpu_side</title>
<path fill="#94918b" stroke="#000000" d="M341.5,-561C341.5,-561 392.5,-561 392.5,-561 398.5,-561 404.5,-567 404.5,-573 404.5,-573 404.5,-585 404.5,-585 404.5,-591 398.5,-597 392.5,-597 392.5,-597 341.5,-597 341.5,-597 335.5,-597 329.5,-591 329.5,-585 329.5,-585 329.5,-573 329.5,-573 329.5,-567 335.5,-561 341.5,-561"/>
<text text-anchor="middle" x="367" y="-575.3" font-family="Arial" font-size="14.00" fill="#000000">cpu_side</text>
</g>
<!-- system_cpu_itb_walker_port -->
<g id="node17" class="node"><title>system_cpu_itb_walker_port</title>
<path fill="#7f7c77" stroke="#000000" d="M564,-825C564,-825 594,-825 594,-825 600,-825 606,-831 606,-837 606,-837 606,-849 606,-849 606,-855 600,-861 594,-861 594,-861 564,-861 564,-861 558,-861 552,-855 552,-849 552,-849 552,-837 552,-837 552,-831 558,-825 564,-825"/>
<text text-anchor="middle" x="579" y="-839.3" font-family="Arial" font-size="14.00" fill="#000000">port</text>
</g>
<!-- system_cpu_itb_walker_port&#45;&gt;system_cpu_toL2Bus_slave -->
<g id="edge11" class="edge"><title>system_cpu_itb_walker_port&#45;&gt;system_cpu_toL2Bus_slave</title>
<path fill="none" stroke="black" d="M559.688,-824.979C545.968,-812.301 527.634,-794.119 514,-776 505.17,-764.265 496.996,-750.131 490.677,-738.134"/>
<polygon fill="black" stroke="black" points="493.703,-736.363 486.03,-729.057 487.472,-739.553 493.703,-736.363"/>
</g>
<!-- system_cpu_dcache_mem_side -->
<g id="node18" class="node"><title>system_cpu_dcache_mem_side</title>
<path fill="#94918b" stroke="#000000" d="M248,-825C248,-825 308,-825 308,-825 314,-825 320,-831 320,-837 320,-837 320,-849 320,-849 320,-855 314,-861 308,-861 308,-861 248,-861 248,-861 242,-861 236,-855 236,-849 236,-849 236,-837 236,-837 236,-831 242,-825 248,-825"/>
<text text-anchor="middle" x="278" y="-839.3" font-family="Arial" font-size="14.00" fill="#000000">mem_side</text>
</g>
<!-- system_cpu_dcache_mem_side&#45;&gt;system_cpu_toL2Bus_slave -->
<g id="edge12" class="edge"><title>system_cpu_dcache_mem_side&#45;&gt;system_cpu_toL2Bus_slave</title>
<path fill="none" stroke="black" d="M304.558,-824.737C340.22,-801.557 403.654,-760.325 443.128,-734.667"/>
<polygon fill="black" stroke="black" points="445.173,-737.512 451.65,-729.127 441.358,-731.643 445.173,-737.512"/>
</g>
<!-- system_cpu_toL2Bus_master -->
<g id="node20" class="node"><title>system_cpu_toL2Bus_master</title>
<path fill="#586070" stroke="#000000" d="M535,-693C535,-693 571,-693 571,-693 577,-693 583,-699 583,-705 583,-705 583,-717 583,-717 583,-723 577,-729 571,-729 571,-729 535,-729 535,-729 529,-729 523,-723 523,-717 523,-717 523,-705 523,-705 523,-699 529,-693 535,-693"/>
<text text-anchor="middle" x="553" y="-707.3" font-family="Arial" font-size="14.00" fill="#000000">master</text>
</g>
<!-- system_cpu_toL2Bus_master&#45;&gt;system_cpu_l2cache_cpu_side -->
<g id="edge13" class="edge"><title>system_cpu_toL2Bus_master&#45;&gt;system_cpu_l2cache_cpu_side</title>
<path fill="none" stroke="black" d="M529.144,-692.955C524.248,-689.785 519.046,-686.643 514,-684 471.232,-661.596 451.072,-673.691 413,-644 399.889,-633.775 388.861,-618.839 380.892,-605.966"/>
<polygon fill="black" stroke="black" points="383.735,-603.896 375.645,-597.055 377.703,-607.448 383.735,-603.896"/>
</g>
</g>
</svg>
